<mxfile host="app.diagrams.net" modified="2023-04-01T06:22:41.929Z" agent="Mozilla/5.0 (Macintosh; Intel Mac OS X 10_15_7) AppleWebKit/537.36 (KHTML, like Gecko) Chrome/111.0.0.0 Safari/537.36" etag="c_YqxRTMlYgCpDK08R87" version="21.1.2" type="github">
  <diagram id="C5RBs43oDa-KdzZeNtuy" name="Page-1">
    <mxGraphModel dx="2063" dy="1215" grid="1" gridSize="10" guides="1" tooltips="1" connect="1" arrows="1" fold="1" page="1" pageScale="1" pageWidth="827" pageHeight="1169" math="0" shadow="0">
      <root>
        <mxCell id="WIyWlLk6GJQsqaUBKTNV-0" />
        <mxCell id="WIyWlLk6GJQsqaUBKTNV-1" parent="WIyWlLk6GJQsqaUBKTNV-0" />
        <mxCell id="WIyWlLk6GJQsqaUBKTNV-3" value="input gender, age, height" style="rounded=1;whiteSpace=wrap;html=1;fontSize=12;glass=0;strokeWidth=1;shadow=0;" parent="WIyWlLk6GJQsqaUBKTNV-1" vertex="1">
          <mxGeometry x="160" y="50" width="120" height="40" as="geometry" />
        </mxCell>
        <mxCell id="C7lqwgW3DdqIQ0tNQ6dV-1" value="onboard with basic stats" style="rounded=0;html=1;jettySize=auto;orthogonalLoop=1;fontSize=11;endArrow=block;endFill=0;endSize=8;strokeWidth=3;shadow=0;labelBackgroundColor=none;edgeStyle=orthogonalEdgeStyle;" edge="1" parent="WIyWlLk6GJQsqaUBKTNV-1">
          <mxGeometry x="-0.5294" y="-30" relative="1" as="geometry">
            <mxPoint x="280" y="70" as="sourcePoint" />
            <mxPoint x="400" y="120" as="targetPoint" />
            <mxPoint as="offset" />
          </mxGeometry>
        </mxCell>
        <mxCell id="C7lqwgW3DdqIQ0tNQ6dV-5" value="&lt;font style=&quot;font-size: 14px;&quot;&gt;fitness level&lt;/font&gt;" style="edgeStyle=orthogonalEdgeStyle;rounded=0;orthogonalLoop=1;jettySize=auto;html=1;exitX=0;exitY=0.5;exitDx=0;exitDy=0;strokeWidth=3;" edge="1" parent="WIyWlLk6GJQsqaUBKTNV-1" source="C7lqwgW3DdqIQ0tNQ6dV-3">
          <mxGeometry x="-0.0409" y="-40" relative="1" as="geometry">
            <mxPoint x="240" y="360" as="targetPoint" />
            <mxPoint as="offset" />
          </mxGeometry>
        </mxCell>
        <mxCell id="C7lqwgW3DdqIQ0tNQ6dV-3" value="&lt;span style=&quot;color: rgb(0, 0, 0); font-family: Helvetica; font-size: 12px; font-style: normal; font-variant-ligatures: normal; font-variant-caps: normal; font-weight: 400; letter-spacing: normal; orphans: 2; text-align: center; text-indent: 0px; text-transform: none; widows: 2; word-spacing: 0px; -webkit-text-stroke-width: 0px; background-color: rgb(251, 251, 251); text-decoration-thickness: initial; text-decoration-style: initial; text-decoration-color: initial; float: none; display: inline !important;&quot;&gt;calculator 1: input weight, excercise, oneRepMax&lt;/span&gt;" style="rhombus;whiteSpace=wrap;html=1;shadow=0;fontFamily=Helvetica;fontSize=12;align=center;strokeWidth=1;spacing=6;spacingTop=-4;" vertex="1" parent="WIyWlLk6GJQsqaUBKTNV-1">
          <mxGeometry x="339" y="120" width="130" height="140" as="geometry" />
        </mxCell>
        <mxCell id="C7lqwgW3DdqIQ0tNQ6dV-7" value="&lt;font style=&quot;font-size: 16px;&quot;&gt;timeline, end bf%, fat to muscle ratio, total lbs gained&lt;/font&gt;" style="edgeStyle=orthogonalEdgeStyle;rounded=0;orthogonalLoop=1;jettySize=auto;html=1;exitX=1;exitY=0.5;exitDx=0;exitDy=0;endSize=10;strokeWidth=3;" edge="1" parent="WIyWlLk6GJQsqaUBKTNV-1" source="C7lqwgW3DdqIQ0tNQ6dV-6">
          <mxGeometry x="-0.1556" y="-20" relative="1" as="geometry">
            <mxPoint x="660" y="390" as="targetPoint" />
            <Array as="points">
              <mxPoint x="450" y="530" />
              <mxPoint x="620" y="530" />
              <mxPoint x="620" y="390" />
            </Array>
            <mxPoint as="offset" />
          </mxGeometry>
        </mxCell>
        <mxCell id="C7lqwgW3DdqIQ0tNQ6dV-6" value="calculator 3: sliders for bmr, bf%, muscle, calorie surplus" style="rhombus;whiteSpace=wrap;html=1;shadow=0;fontFamily=Helvetica;fontSize=12;align=center;strokeWidth=1;spacing=6;spacingTop=-4;" vertex="1" parent="WIyWlLk6GJQsqaUBKTNV-1">
          <mxGeometry x="320" y="360" width="130" height="140" as="geometry" />
        </mxCell>
        <mxCell id="C7lqwgW3DdqIQ0tNQ6dV-13" style="edgeStyle=orthogonalEdgeStyle;rounded=0;orthogonalLoop=1;jettySize=auto;html=1;exitX=1;exitY=0.5;exitDx=0;exitDy=0;entryX=0;entryY=0.5;entryDx=0;entryDy=0;" edge="1" parent="WIyWlLk6GJQsqaUBKTNV-1" source="C7lqwgW3DdqIQ0tNQ6dV-8" target="C7lqwgW3DdqIQ0tNQ6dV-6">
          <mxGeometry relative="1" as="geometry" />
        </mxCell>
        <mxCell id="C7lqwgW3DdqIQ0tNQ6dV-16" style="edgeStyle=orthogonalEdgeStyle;rounded=0;orthogonalLoop=1;jettySize=auto;html=1;exitX=0;exitY=0.5;exitDx=0;exitDy=0;entryX=1;entryY=0.5;entryDx=0;entryDy=0;" edge="1" parent="WIyWlLk6GJQsqaUBKTNV-1" source="C7lqwgW3DdqIQ0tNQ6dV-8" target="C7lqwgW3DdqIQ0tNQ6dV-9">
          <mxGeometry relative="1" as="geometry" />
        </mxCell>
        <mxCell id="C7lqwgW3DdqIQ0tNQ6dV-8" value="bmr calculator, get gender, age, and height from user stats, get bf% from user, as well as optional activity level" style="rhombus;whiteSpace=wrap;html=1;shadow=0;fontFamily=Helvetica;fontSize=12;align=center;strokeWidth=1;spacing=6;spacingTop=-4;" vertex="1" parent="WIyWlLk6GJQsqaUBKTNV-1">
          <mxGeometry x="171" y="360" width="130" height="140" as="geometry" />
        </mxCell>
        <mxCell id="C7lqwgW3DdqIQ0tNQ6dV-18" value="&lt;font style=&quot;font-size: 20px;&quot;&gt;nutrition info&lt;/font&gt;" style="edgeStyle=orthogonalEdgeStyle;rounded=0;orthogonalLoop=1;jettySize=auto;html=1;exitX=0.5;exitY=1;exitDx=0;exitDy=0;entryX=1;entryY=1;entryDx=0;entryDy=0;strokeWidth=2;" edge="1" parent="WIyWlLk6GJQsqaUBKTNV-1" source="C7lqwgW3DdqIQ0tNQ6dV-9" target="C7lqwgW3DdqIQ0tNQ6dV-14">
          <mxGeometry x="0.0439" y="-20" relative="1" as="geometry">
            <Array as="points">
              <mxPoint x="85" y="610" />
              <mxPoint x="790" y="610" />
            </Array>
            <mxPoint as="offset" />
          </mxGeometry>
        </mxCell>
        <mxCell id="C7lqwgW3DdqIQ0tNQ6dV-9" value="&lt;font style=&quot;font-size: 12px;&quot;&gt;macros calculator: get data from bmr calculator, let user set ratios themselves or let user calculate based on their bodyweight&lt;/font&gt;" style="rhombus;whiteSpace=wrap;html=1;shadow=0;fontFamily=Helvetica;fontSize=12;align=center;strokeWidth=1;spacing=6;spacingTop=-4;" vertex="1" parent="WIyWlLk6GJQsqaUBKTNV-1">
          <mxGeometry x="20" y="360" width="130" height="150" as="geometry" />
        </mxCell>
        <mxCell id="C7lqwgW3DdqIQ0tNQ6dV-19" value="&lt;font style=&quot;font-size: 14px;&quot;&gt;want to recalculate macros?&lt;/font&gt;" style="edgeStyle=orthogonalEdgeStyle;rounded=0;orthogonalLoop=1;jettySize=auto;html=1;exitX=0;exitY=0.25;exitDx=0;exitDy=0;entryX=0.5;entryY=0;entryDx=0;entryDy=0;strokeWidth=3;" edge="1" parent="WIyWlLk6GJQsqaUBKTNV-1" source="C7lqwgW3DdqIQ0tNQ6dV-14" target="C7lqwgW3DdqIQ0tNQ6dV-9">
          <mxGeometry x="-0.0038" y="17" relative="1" as="geometry">
            <mxPoint as="offset" />
          </mxGeometry>
        </mxCell>
        <mxCell id="C7lqwgW3DdqIQ0tNQ6dV-20" value="want to change your muscle goals?" style="edgeStyle=orthogonalEdgeStyle;rounded=0;orthogonalLoop=1;jettySize=auto;html=1;strokeWidth=3;" edge="1" parent="WIyWlLk6GJQsqaUBKTNV-1" source="C7lqwgW3DdqIQ0tNQ6dV-14" target="C7lqwgW3DdqIQ0tNQ6dV-6">
          <mxGeometry x="-0.3651" y="25" relative="1" as="geometry">
            <Array as="points">
              <mxPoint x="460" y="325" />
              <mxPoint x="460" y="430" />
            </Array>
            <mxPoint as="offset" />
          </mxGeometry>
        </mxCell>
        <mxCell id="C7lqwgW3DdqIQ0tNQ6dV-14" value="results page with forecasted muscle gains and actionable insights on nutriton goals" style="whiteSpace=wrap;html=1;aspect=fixed;" vertex="1" parent="WIyWlLk6GJQsqaUBKTNV-1">
          <mxGeometry x="660" y="260" width="130" height="130" as="geometry" />
        </mxCell>
      </root>
    </mxGraphModel>
  </diagram>
</mxfile>
